<svg xmlns="http://www.w3.org/2000/svg" xmlns:xlink="http://www.w3.org/1999/xlink" fill="#474c51" width="172" height="67.788" viewBox="0 0 172 67.788">
  <defs>
    <clipPath id="clip-path">
      <rect id="Rectangle_1134" data-name="Rectangle 1134" width="172" height="67.788"/>
    </clipPath>
  </defs>
  <g id="Group_404" data-name="Group 404" transform="translate(0 0)">
    <g id="Group_403" data-name="Group 403" transform="translate(0 0)" clip-path="url(#clip-path)">
      <path id="Path_348" data-name="Path 348" d="M106.582,60.144H108.1v-5.4a2.087,2.087,0,0,1,.194-.921,2.551,2.551,0,0,1,.505-.729,2.014,2.014,0,0,1,.7-.476,1.9,1.9,0,0,1,.788-.178,1.434,1.434,0,0,1,1.1.446,1.841,1.841,0,0,1,.4,1.264v5.994h1.5v-5.4a2.607,2.607,0,0,1,.164-.921,2.708,2.708,0,0,1,.446-.729,1.725,1.725,0,0,1,.654-.476,1.862,1.862,0,0,1,.8-.178,1.573,1.573,0,0,1,1.13.446,1.735,1.735,0,0,1,.461,1.264v5.994h1.516V54.016a2.833,2.833,0,0,0-.758-2.127,2.693,2.693,0,0,0-1.962-.729,3.043,3.043,0,0,0-1.518.4,3.167,3.167,0,0,0-1.189,1.234h-.03a2.293,2.293,0,0,0-.877-1.219,2.451,2.451,0,0,0-1.4-.4,2.885,2.885,0,0,0-1.516.4,2.96,2.96,0,0,0-1.071,1.115H108.1V51.383h-1.5Zm-7.124-8.761h-1.5v8.761h1.518V55.369a2.92,2.92,0,0,1,.208-1.115,2.332,2.332,0,0,1,.55-.833,2.539,2.539,0,0,1,.8-.535,2.668,2.668,0,0,1,.967-.193,2.09,2.09,0,0,1,.327.015c.089.014.178.029.3.059h.045V51.324a2.1,2.1,0,0,0-.253-.074,1.533,1.533,0,0,0-.3-.03,2.521,2.521,0,0,0-1.531.461,3.433,3.433,0,0,0-1.056,1.234h-.044V51.383Zm-8.374,8.761H92.6v-8.76H91.084ZM91.04,49.763h1.591V48.008H91.04Zm-9.474,2.811H82.92v7.57h1.516v-7.57h1.8v-1.19h-1.8V50.238a1.4,1.4,0,0,1,.09-.55.675.675,0,0,1,.282-.327,1.337,1.337,0,0,1,.55-.148,6.255,6.255,0,0,1,.892.014V47.978c-.148-.015-.282-.015-.416-.03-.134,0-.253-.015-.372-.015a4.856,4.856,0,0,0-1.115.119,1.844,1.844,0,0,0-.8.386,2.179,2.179,0,0,0-.624,1.741v1.2H81.566Zm-20.539,7.57h1.531l1.325-4.835c.059-.208.1-.446.163-.728s.119-.55.179-.8c.059-.3.134-.6.193-.907h.03c.059.312.134.625.193.907.059.253.119.52.178.788.06.283.119.52.179.743l1.293,4.835h1.518l2.856-8.761H69.1l-1.457,4.863a7.473,7.473,0,0,0-.223.863c-.059.3-.119.579-.178.832-.06.3-.1.6-.164.877h-.029c-.06-.312-.119-.624-.179-.936-.059-.268-.119-.536-.193-.818s-.134-.55-.193-.788l-1.309-4.894H63.734L62.41,56.276q-.113.4-.223.847c-.075.3-.134.565-.194.818-.059.3-.118.58-.178.862h-.03c-.059-.3-.119-.609-.178-.906-.06-.268-.119-.536-.193-.833s-.134-.565-.209-.818l-1.367-4.863H58.216Zm-11.258-.982a1.721,1.721,0,0,1-.565-.223,1.083,1.083,0,0,1-.387-.431,1.392,1.392,0,0,1-.148-.7,1.374,1.374,0,0,1,.178-.743,1.464,1.464,0,0,1,.476-.476,3.086,3.086,0,0,1,.743-.3c.3-.075.625-.134.982-.208a9.5,9.5,0,0,0,1.07-.253,3.106,3.106,0,0,0,.862-.372v1.427a2.237,2.237,0,0,1-.148.789,2.354,2.354,0,0,1-.476.743,2.482,2.482,0,0,1-.8.55,2.684,2.684,0,0,1-1.13.223,2.365,2.365,0,0,1-.654-.03M51.048,60.2a3.927,3.927,0,0,0,.8-.327,4.144,4.144,0,0,0,.639-.461,5.584,5.584,0,0,0,.49-.55H53a1.9,1.9,0,0,0,.491,1.041,1.5,1.5,0,0,0,1.056.327A2,2,0,0,0,55,60.188l.356-.089V59.042H55.3c-.387.09-.625.045-.758-.133a1.292,1.292,0,0,1-.179-.788V54.016a3.17,3.17,0,0,0-.312-1.472,2.207,2.207,0,0,0-.862-.907,3.3,3.3,0,0,0-.967-.357,5.7,5.7,0,0,0-1.16-.119,4.937,4.937,0,0,0-1.546.223,3.042,3.042,0,0,0-1.1.625,2.578,2.578,0,0,0-.669.892,2.889,2.889,0,0,0-.253,1.056h1.472a1.69,1.69,0,0,1,.55-1.236,2.253,2.253,0,0,1,1.561-.46,2.063,2.063,0,0,1,1.4.416,1.406,1.406,0,0,1,.476,1.13.894.894,0,0,1-.149.55,1.317,1.317,0,0,1-.431.357,3,3,0,0,1-.669.223,6.592,6.592,0,0,1-.877.134,10.683,10.683,0,0,0-1.548.267,3.746,3.746,0,0,0-1.189.461,2.179,2.179,0,0,0-.773.788,2.585,2.585,0,0,0-.268,1.249,2.5,2.5,0,0,0,.223,1.1,2.107,2.107,0,0,0,.625.773,2.674,2.674,0,0,0,.951.461,4.242,4.242,0,0,0,1.175.149,3.687,3.687,0,0,0,1.026-.119M40.83,60.144h1.518V47.993H40.83Z" transform="translate(6.36 7.466)" />
      <path id="Path_349" data-name="Path 349" d="M167.91,32.749H172V0h-4.09Zm-18.992-2.662a4.029,4.029,0,0,1-1.518-.6,3.311,3.311,0,0,1-1.056-1.16,3.815,3.815,0,0,1-.4-1.873,3.859,3.859,0,0,1,.461-2.008,3.8,3.8,0,0,1,1.293-1.279,7,7,0,0,1,2.023-.788c.788-.193,1.667-.372,2.648-.55a28.312,28.312,0,0,0,2.885-.684,8.665,8.665,0,0,0,2.306-1v3.866a5.872,5.872,0,0,1-.416,2.113,6.076,6.076,0,0,1-1.279,2.008,6.991,6.991,0,0,1-2.157,1.5,7.208,7.208,0,0,1-3.064.6,11.441,11.441,0,0,1-1.724-.148m3.435,2.811a9.187,9.187,0,0,0,2.172-.878,9.369,9.369,0,0,0,1.711-1.249,11.357,11.357,0,0,0,1.323-1.5h.045a4.939,4.939,0,0,0,1.323,2.8,4.014,4.014,0,0,0,2.856.907,5.883,5.883,0,0,0,1.249-.1c.342-.074.654-.149.951-.238V29.774h-.178c-1.026.238-1.711.119-2.023-.357a3.72,3.72,0,0,1-.491-2.112V16.255a8.46,8.46,0,0,0-.833-3.956,6.233,6.233,0,0,0-2.335-2.469,8.576,8.576,0,0,0-2.6-.966,14.932,14.932,0,0,0-3.123-.312,13.013,13.013,0,0,0-4.164.609,9,9,0,0,0-2.975,1.665,7.083,7.083,0,0,0-1.8,2.425,7.292,7.292,0,0,0-.654,2.856h3.956a4.514,4.514,0,0,1,1.472-3.347,6.189,6.189,0,0,1,4.209-1.234,5.68,5.68,0,0,1,3.762,1.1,3.757,3.757,0,0,1,1.294,3.035,2.59,2.59,0,0,1-.4,1.5,2.93,2.93,0,0,1-1.145.952,7.451,7.451,0,0,1-1.8.594,22.348,22.348,0,0,1-2.38.357,40.061,40.061,0,0,0-4.164.7A11.3,11.3,0,0,0,144.4,21a5.431,5.431,0,0,0-2.068,2.112A6.918,6.918,0,0,0,141.6,26.5a6.86,6.86,0,0,0,.609,2.975,6.153,6.153,0,0,0,1.7,2.1,6.958,6.958,0,0,0,2.559,1.249,12.022,12.022,0,0,0,3.153.417,10.843,10.843,0,0,0,2.736-.342M121.79,26.145a9.669,9.669,0,0,1-1.665-5.978,9.819,9.819,0,0,1,1.637-5.979,5.614,5.614,0,0,1,4.877-2.246,6.34,6.34,0,0,1,5.266,2.127,9.2,9.2,0,0,1,1.7,5.875,14.8,14.8,0,0,1-.357,3.346,7.354,7.354,0,0,1-1.16,2.662,5.48,5.48,0,0,1-2.127,1.756,7.354,7.354,0,0,1-3.257.639,5.808,5.808,0,0,1-4.909-2.2m9.385,14.322a9.314,9.314,0,0,0,3.346-1.7,7.54,7.54,0,0,0,2.113-2.885,10.253,10.253,0,0,0,.743-4.119V9.117h-4.045V12.24h-.089a7.856,7.856,0,0,0-2.886-2.752,8.962,8.962,0,0,0-4.3-.951,9.924,9.924,0,0,0-3.912.788,9.59,9.59,0,0,0-3.227,2.261,10.338,10.338,0,0,0-2.172,3.628,13.943,13.943,0,0,0-.788,4.878,13.58,13.58,0,0,0,.773,4.714,11.394,11.394,0,0,0,2.127,3.659,9.479,9.479,0,0,0,3.272,2.38,10.116,10.116,0,0,0,4.164.832,7.92,7.92,0,0,0,4.164-1.011,9.771,9.771,0,0,0,2.886-2.766h.089c-.03.386-.045.877-.059,1.472s-.03,1.234-.03,1.919v.654a5.51,5.51,0,0,1-1.7,4.461,7.352,7.352,0,0,1-4.863,1.429,9.787,9.787,0,0,1-4.313-.818,3.329,3.329,0,0,1-1.934-2.662h-3.822a6.5,6.5,0,0,0,2.93,4.907A12.842,12.842,0,0,0,126.892,41a15,15,0,0,0,4.283-.536m-24.9-26.844a8.5,8.5,0,0,1,1.873,5.338H94.47a11.508,11.508,0,0,1,.7-2.9,7.585,7.585,0,0,1,1.412-2.291,6.394,6.394,0,0,1,2.112-1.516,6.723,6.723,0,0,1,2.811-.55,5.993,5.993,0,0,1,4.774,1.919m2.246,17.727a9.225,9.225,0,0,0,3.5-5.338h-4a5.374,5.374,0,0,1-2.172,2.974,8.1,8.1,0,0,1-7.109.461,6.53,6.53,0,0,1-2.246-1.711,8.476,8.476,0,0,1-1.457-2.6,11.71,11.71,0,0,1-.654-3.212H112.51a19.235,19.235,0,0,0-.729-5.5,11.945,11.945,0,0,0-2.172-4.224A9.978,9.978,0,0,0,106.174,9.5a10.786,10.786,0,0,0-4.67-.966,11.025,11.025,0,0,0-4.639.966,10.412,10.412,0,0,0-3.57,2.663,12.556,12.556,0,0,0-2.29,3.955,14,14,0,0,0-.818,4.82A14.9,14.9,0,0,0,90.96,25.8a11.545,11.545,0,0,0,2.261,3.955,10.5,10.5,0,0,0,3.629,2.663,11.784,11.784,0,0,0,4.863.966,10.813,10.813,0,0,0,6.811-2.038m-26.9,1.4h4.09V0H81.62Zm-10.069,0h4.759V27.9H71.551Zm-6.767-1.726a9.767,9.767,0,0,0,3.064-6.648H63.8a6.229,6.229,0,0,1-1.83,4.164A6.108,6.108,0,0,1,57.6,30.057a7.014,7.014,0,0,1-3.183-.7,6.6,6.6,0,0,1-2.3-1.934,8.507,8.507,0,0,1-1.383-2.885,13.076,13.076,0,0,1-.461-3.584,13.2,13.2,0,0,1,.461-3.57,8.732,8.732,0,0,1,1.383-2.9,6.441,6.441,0,0,1,2.3-1.934,6.863,6.863,0,0,1,3.183-.7,6.154,6.154,0,0,1,4.134,1.325,6.141,6.141,0,0,1,1.979,3.643H67.8a9.589,9.589,0,0,0-3.272-6.053A10.417,10.417,0,0,0,57.6,8.552a11.561,11.561,0,0,0-4.774.966A10.5,10.5,0,0,0,49.2,12.18a12.047,12.047,0,0,0-2.3,3.956,14.027,14.027,0,0,0-.818,4.82,14.148,14.148,0,0,0,.818,4.862,11.884,11.884,0,0,0,2.3,3.956,10.52,10.52,0,0,0,3.629,2.663A11.561,11.561,0,0,0,57.6,33.4a10.34,10.34,0,0,0,7.183-2.38M26.265,9.117H22.22V32.749h4.09V18.368a7.1,7.1,0,0,1,.46-2.6,5.629,5.629,0,0,1,3.3-3.317,6.712,6.712,0,0,1,2.529-.461,5.556,5.556,0,0,1,3.807,1.234,4.463,4.463,0,0,1,1.383,3.525V32.764h4.045V16.24a7.457,7.457,0,0,0-2.112-5.726,8.213,8.213,0,0,0-5.846-1.978,8.665,8.665,0,0,0-4.4,1.055A9.7,9.7,0,0,0,26.4,12.448h-.134ZM11.615,32.749h4.09V9.117h-4.09Zm-.089-27.99h4.268V0H11.526ZM0,32.749H4.09V0H0Z" transform="translate(0 -0.001)" />
    </g>
  </g>
</svg>
