<?xml version="1.0" encoding="UTF-8"?>
<svg xmlns="http://www.w3.org/2000/svg" xmlns:xlink="http://www.w3.org/1999/xlink" width="20px" height="21px" viewBox="0 0 20 20" version="1.1">
<g id="surface1">
<path style=" stroke:none;fill-rule:nonzero;fill:rgb(0%,0%,0%);fill-opacity:1;" d="M 5.027344 0.28125 C 4.757812 0.351562 4.589844 0.472656 4.488281 0.683594 C 4.429688 0.792969 4.425781 0.8125 4.429688 0.949219 C 4.429688 1.121094 4.472656 1.265625 4.589844 1.472656 C 4.726562 1.722656 4.878906 1.925781 5.851562 3.152344 C 7.363281 5.050781 8.0625 6.425781 8.203125 7.753906 C 8.234375 8.023438 8.214844 8.523438 8.171875 8.765625 C 7.890625 10.296875 6.535156 12.058594 3.9375 14.269531 C 3.605469 14.554688 3.335938 14.777344 2.738281 15.273438 C 1.742188 16.089844 1.425781 16.390625 1.273438 16.648438 C 1.113281 16.925781 1.140625 17.21875 1.34375 17.414062 C 1.601562 17.660156 2.042969 17.699219 2.746094 17.539062 C 2.859375 17.515625 2.960938 17.492188 2.980469 17.488281 C 3 17.484375 2.992188 17.492188 2.964844 17.5 L 2.914062 17.523438 L 2.964844 17.542969 C 3.050781 17.574219 3.117188 17.578125 3.238281 17.558594 C 3.441406 17.523438 3.753906 17.441406 4.011719 17.347656 C 4.054688 17.332031 4.144531 17.300781 4.214844 17.273438 C 4.285156 17.25 4.363281 17.222656 4.382812 17.214844 C 4.402344 17.207031 4.433594 17.195312 4.457031 17.1875 C 4.476562 17.179688 4.527344 17.15625 4.566406 17.140625 C 4.609375 17.121094 4.652344 17.105469 4.660156 17.105469 C 4.671875 17.105469 4.792969 17.054688 4.84375 17.027344 C 4.859375 17.019531 4.878906 17.011719 4.886719 17.011719 C 4.898438 17.011719 4.949219 16.992188 5.007812 16.96875 C 5.101562 16.925781 5.15625 16.90625 5.285156 16.851562 C 5.382812 16.8125 5.605469 16.714844 5.742188 16.65625 C 5.796875 16.628906 5.878906 16.59375 5.929688 16.574219 C 5.976562 16.550781 6.058594 16.515625 6.109375 16.496094 C 6.15625 16.476562 6.277344 16.421875 6.375 16.375 C 6.476562 16.332031 6.617188 16.265625 6.691406 16.230469 C 6.914062 16.132812 8.328125 15.457031 8.648438 15.296875 C 8.984375 15.132812 9.179688 15.035156 9.695312 14.773438 C 9.863281 14.683594 10.050781 14.589844 10.117188 14.554688 C 10.144531 14.539062 10.195312 14.511719 10.222656 14.496094 C 10.25 14.480469 10.335938 14.4375 10.414062 14.398438 C 10.488281 14.363281 10.554688 14.328125 10.558594 14.324219 C 10.5625 14.316406 10.613281 14.289062 10.671875 14.261719 C 10.730469 14.234375 10.804688 14.195312 10.835938 14.179688 C 10.867188 14.160156 10.921875 14.132812 10.960938 14.109375 C 11.03125 14.074219 11.113281 14.027344 11.253906 13.957031 C 11.296875 13.933594 11.359375 13.898438 11.394531 13.878906 C 11.429688 13.859375 11.488281 13.828125 11.523438 13.808594 C 11.5625 13.789062 11.621094 13.761719 11.65625 13.742188 C 11.691406 13.722656 11.722656 13.707031 11.726562 13.699219 C 11.734375 13.695312 11.773438 13.671875 11.914062 13.601562 C 11.933594 13.59375 11.949219 13.582031 11.957031 13.578125 C 11.960938 13.570312 12 13.550781 12.046875 13.53125 C 12.089844 13.507812 12.128906 13.488281 12.132812 13.484375 C 12.148438 13.46875 12.234375 13.421875 12.296875 13.394531 C 12.328125 13.378906 12.355469 13.363281 12.359375 13.355469 C 12.363281 13.347656 12.371094 13.34375 12.378906 13.34375 C 12.382812 13.34375 12.441406 13.316406 12.5 13.28125 C 12.558594 13.246094 12.613281 13.21875 12.621094 13.21875 C 12.628906 13.21875 12.636719 13.210938 12.636719 13.203125 C 12.636719 13.195312 12.648438 13.1875 12.660156 13.1875 C 12.667969 13.1875 12.738281 13.152344 12.808594 13.109375 C 12.878906 13.066406 12.945312 13.03125 12.957031 13.03125 C 12.96875 13.03125 12.980469 13.023438 12.980469 13.015625 C 12.980469 13.007812 12.992188 13 13.003906 13 C 13.015625 13 13.027344 12.992188 13.027344 12.984375 C 13.027344 12.976562 13.035156 12.96875 13.042969 12.96875 C 13.054688 12.96875 13.367188 12.792969 13.738281 12.578125 C 14.109375 12.363281 14.433594 12.179688 14.453125 12.171875 C 14.472656 12.160156 14.488281 12.148438 14.488281 12.140625 C 14.488281 12.136719 14.496094 12.128906 14.507812 12.128906 C 14.519531 12.128906 14.707031 12.023438 14.746094 11.992188 C 14.757812 11.984375 14.765625 11.976562 14.773438 11.976562 C 14.78125 11.976562 14.976562 11.859375 15.003906 11.835938 C 15.015625 11.828125 15.027344 11.820312 15.03125 11.820312 C 15.039062 11.820312 15.109375 11.777344 15.191406 11.726562 C 15.273438 11.675781 15.355469 11.625 15.367188 11.617188 C 15.441406 11.574219 16.433594 10.941406 16.4375 10.933594 C 16.445312 10.925781 16.496094 10.890625 16.550781 10.855469 C 16.609375 10.820312 16.667969 10.777344 16.679688 10.769531 C 16.695312 10.757812 16.785156 10.695312 16.878906 10.628906 C 16.972656 10.5625 17.050781 10.503906 17.054688 10.496094 C 17.0625 10.492188 17.105469 10.457031 17.152344 10.421875 C 17.273438 10.324219 17.386719 10.21875 17.375 10.207031 C 17.371094 10.203125 17.355469 10.207031 17.339844 10.21875 C 17.328125 10.230469 17.316406 10.234375 17.316406 10.230469 C 17.316406 10.226562 17.382812 10.175781 17.464844 10.113281 C 18.082031 9.679688 18.445312 9.335938 18.578125 9.078125 C 18.761719 8.710938 18.636719 8.277344 18.1875 7.738281 C 17.0625 6.390625 13.535156 3.929688 10.070312 2.074219 C 8.273438 1.113281 6.851562 0.511719 5.871094 0.300781 C 5.617188 0.246094 5.195312 0.234375 5.027344 0.28125 Z M 17.300781 10.238281 C 17.300781 10.242188 17.289062 10.253906 17.273438 10.265625 C 17.246094 10.285156 17.246094 10.285156 17.265625 10.257812 C 17.289062 10.234375 17.300781 10.226562 17.300781 10.238281 Z M 17.300781 10.238281 "/>
<path style=" stroke:none;fill-rule:nonzero;fill:rgb(0%,0%,0%);fill-opacity:1;" d="M 17.421875 10.164062 C 17.394531 10.183594 17.378906 10.199219 17.386719 10.203125 C 17.394531 10.203125 17.417969 10.183594 17.441406 10.164062 C 17.5 10.113281 17.484375 10.113281 17.421875 10.164062 Z M 17.421875 10.164062 "/>
<path style=" stroke:none;fill-rule:nonzero;fill:rgb(0%,0%,0%);fill-opacity:1;" d="M 2.871094 17.539062 C 2.882812 17.542969 2.898438 17.539062 2.902344 17.535156 C 2.910156 17.53125 2.898438 17.527344 2.882812 17.527344 C 2.863281 17.527344 2.859375 17.53125 2.871094 17.539062 Z M 2.871094 17.539062 "/>
</g>
</svg>
